<svg width="22" height="18" viewBox="0 0 22 18" fill="none" xmlns="http://www.w3.org/2000/svg">
<g clip-path="url(#clip0)">
<path d="M18.6239 2.20702C17.2217 1.57421 15.7181 1.10799 14.1459 0.840964C14.1173 0.83581 14.0887 0.848689 14.0739 0.874448C13.8805 1.21274 13.6663 1.65406 13.5163 2.00094C11.8254 1.75195 10.1431 1.75195 8.48679 2.00094C8.33676 1.64635 8.11478 1.21274 7.92053 0.874448C7.90578 0.849549 7.87718 0.83667 7.84855 0.840964C6.27725 1.10714 4.7736 1.57336 3.37052 2.20702C3.35838 2.21217 3.34797 2.22077 3.34106 2.23192C0.488942 6.42282 -0.292371 10.5107 0.0909151 14.5479C0.0926494 14.5677 0.103922 14.5866 0.119532 14.5986C2.00127 15.9578 3.82406 16.7829 5.61301 17.3298C5.64164 17.3384 5.67197 17.3281 5.69019 17.3049C6.11337 16.7365 6.49059 16.1372 6.81402 15.507C6.83311 15.4701 6.81489 15.4263 6.77588 15.4117C6.17754 15.1884 5.6078 14.9163 5.05975 14.6072C5.0164 14.5823 5.01293 14.5213 5.05281 14.4921C5.16814 14.4071 5.2835 14.3187 5.39363 14.2294C5.41355 14.2131 5.44131 14.2096 5.46474 14.2199C9.06518 15.8367 12.9631 15.8367 16.521 14.2199C16.5445 14.2088 16.5722 14.2122 16.593 14.2285C16.7032 14.3178 16.8185 14.4071 16.9347 14.4921C16.9746 14.5213 16.972 14.5823 16.9286 14.6072C16.3806 14.9223 15.8108 15.1884 15.2116 15.4108C15.1726 15.4254 15.1553 15.4701 15.1744 15.507C15.5047 16.1363 15.882 16.7357 16.2973 17.3041C16.3147 17.3281 16.3459 17.3384 16.3745 17.3298C18.1721 16.7829 19.9949 15.9578 21.8766 14.5986C21.8931 14.5866 21.9035 14.5685 21.9053 14.5488C22.364 9.88132 21.1369 5.82695 18.6525 2.23277C18.6465 2.22077 18.6361 2.21217 18.6239 2.20702ZM7.35169 12.0897C6.26771 12.0897 5.37454 11.1109 5.37454 9.90881C5.37454 8.70674 6.25039 7.72794 7.35169 7.72794C8.46163 7.72794 9.34616 8.71533 9.32881 9.90881C9.32881 11.1109 8.45296 12.0897 7.35169 12.0897ZM14.6619 12.0897C13.5779 12.0897 12.6847 11.1109 12.6847 9.90881C12.6847 8.70674 13.5606 7.72794 14.6619 7.72794C15.7718 7.72794 16.6563 8.71533 16.639 9.90881C16.639 11.1109 15.7718 12.0897 14.6619 12.0897Z" fill="#8B8A9D"/>
</g>
<defs>
<clipPath id="clip0">
<rect width="22" height="16.7619" fill="white" transform="translate(0 0.714355)"/>
</clipPath>
</defs>
</svg>
